<mxfile host="app.diagrams.net" modified="2024-06-21T11:30:40.360Z" agent="Mozilla/5.0 (Windows NT 10.0; Win64; x64) AppleWebKit/537.36 (KHTML, like Gecko) Chrome/125.0.0.0 Safari/537.36" version="24.5.2" etag="lZeOnpajnG7tWbhkx5_G" type="github">
  <diagram name="Страница — 1" id="NRaaSORDneKMoUdYIwim">
    <mxGraphModel>
      <root>
        <mxCell id="0" />
        <mxCell id="1" parent="0" />
      </root>
    </mxGraphModel>
  </diagram>
</mxfile>
